<?xml version="1.0" standalone="no"?>
<!DOCTYPE svg PUBLIC "-//W3C//DTD SVG 20010904//EN"
 "http://www.w3.org/TR/2001/REC-SVG-20010904/DTD/svg10.dtd">
<svg version="1.0" xmlns="http://www.w3.org/2000/svg"
 width="280.000000pt" height="280.000000pt" viewBox="0 0 280.000000 280.000000"
 preserveAspectRatio="xMidYMid meet">
<metadata>
Created by potrace 1.11, written by Peter Selinger 2001-2013
</metadata>
<g transform="translate(0.000000,280.000000) scale(0.100000,-0.100000)"
fill="#000000" stroke="none">
<path d="M2530 2739 c0 -5 5 -7 10 -4 6 3 10 8 10 11 0 2 -4 4 -10 4 -5 0 -10
-5 -10 -11z"/>
<path d="M2574 2735 c-4 -8 -10 -13 -14 -10 -4 3 -10 -5 -13 -17 -4 -12 -9
-19 -13 -15 -4 3 -16 1 -28 -5 -27 -15 -48 -19 -40 -7 3 5 0 9 -5 9 -6 0 -11
-4 -11 -10 0 -5 -5 -10 -11 -10 -5 0 -7 5 -3 12 4 7 3 8 -5 4 -6 -4 -9 -12 -6
-17 9 -13 -9 -11 -25 4 -12 10 -12 9 -2 -5 7 -9 9 -18 5 -20 -4 -3 -3 -3 4 -2
15 4 25 -24 11 -32 -7 -4 -8 -3 -4 4 5 8 0 12 -14 12 -25 0 -38 -28 -19 -42
11 -8 10 -9 -3 -4 -11 3 -21 -2 -28 -14 -6 -12 -18 -17 -30 -15 -12 2 -18 0
-15 -6 4 -5 11 -7 16 -4 5 4 9 1 9 -5 0 -7 -7 -9 -15 -6 -47 19 -50 19 -30 2
20 -17 20 -17 -2 -13 -13 3 -21 0 -20 -6 2 -10 -2 -12 -35 -16 -9 -1 -9 -4 -3
-9 14 -10 12 -38 -3 -35 -7 2 -9 -4 -5 -15 6 -15 5 -15 -11 -3 -15 12 -17 12
-14 0 2 -8 -3 -13 -9 -11 -7 1 -13 -2 -13 -7 0 -6 9 -9 19 -8 11 0 18 4 15 8
-2 4 4 6 14 5 9 0 16 5 14 12 -1 6 2 12 8 12 28 0 -5 -40 -36 -44 -10 -2 -20
-9 -22 -16 -3 -8 0 -10 8 -5 8 5 11 4 6 -3 -9 -14 -38 -3 -30 12 3 6 -2 2 -11
-9 -9 -11 -24 -19 -33 -17 -15 2 -15 1 -2 -7 13 -10 8 -15 -12 -12 -4 0 -5 -6
-1 -15 5 -14 9 -13 24 7 18 24 18 24 16 2 0 -12 -6 -21 -12 -20 -5 1 -9 -4 -7
-11 3 -16 -33 1 -42 20 -3 7 -3 3 0 -9 5 -23 -10 -32 -19 -13 -3 6 -4 5 -3 -2
2 -7 14 -12 27 -11 21 2 22 1 6 -8 -10 -6 -14 -16 -10 -22 3 -7 -3 -4 -14 6
-19 17 -21 17 -34 0 -9 -11 -10 -14 -1 -9 7 4 12 2 12 -4 0 -6 6 -8 13 -4 9 5
9 4 0 -6 -15 -16 -46 -23 -37 -9 3 5 0 9 -7 9 -6 0 -9 -8 -6 -20 6 -22 -3 -26
-20 -9 -8 8 -13 7 -18 -2 -5 -7 -4 -10 2 -6 6 4 14 0 17 -9 4 -12 2 -15 -9
-10 -8 3 -15 1 -15 -3 0 -5 4 -11 9 -13 5 -1 2 -10 -7 -18 -14 -13 -15 -13
-10 1 3 9 1 16 -5 16 -7 0 -21 4 -32 7 -15 5 -15 4 3 -5 22 -12 31 -39 11 -39
-5 0 -7 6 -3 13 6 9 5 9 -8 0 -8 -7 -17 -10 -20 -7 -3 3 -9 0 -14 -7 -4 -7 -3
-10 2 -7 5 3 16 -1 23 -10 13 -14 12 -15 -7 -10 -17 5 -22 2 -23 -15 -1 -12
-1 -26 0 -30 1 -4 -7 -3 -18 2 -14 8 -21 7 -24 -2 -4 -9 -8 -8 -16 3 -8 12
-10 11 -9 -5 0 -11 -3 -29 -7 -40 -7 -16 -6 -18 6 -7 7 6 17 12 21 12 5 0 -6
-13 -24 -29 -29 -26 -35 -28 -49 -15 -14 12 -16 12 -16 -1 0 -8 4 -12 7 -10 4
3 8 -7 8 -20 0 -29 -2 -29 -31 -13 -21 11 -21 10 -7 -7 14 -17 13 -18 -2 -12
-13 4 -15 2 -11 -11 6 -15 5 -15 -10 -3 -15 12 -17 12 -11 -3 5 -13 2 -15 -12
-10 -17 6 -17 5 1 -9 12 -10 15 -16 7 -17 -9 0 -11 -8 -8 -22 3 -13 3 -17 0
-10 -3 6 -10 9 -16 6 -5 -4 -5 4 2 16 8 15 8 20 1 16 -12 -8 -42 -62 -40 -72
0 -3 -1 -8 -4 -10 -2 -2 -3 11 -2 30 1 19 -2 33 -7 30 -5 -3 -8 -11 -7 -17 3
-27 -2 -47 -11 -47 -5 0 -10 8 -11 18 0 11 -2 12 -6 4 -3 -7 0 -18 5 -25 7 -8
7 -18 2 -27 -7 -10 -10 -11 -10 -2 0 6 -5 12 -11 12 -6 0 -8 -8 -4 -19 4 -15
1 -18 -20 -16 -14 2 -28 -2 -32 -7 -3 -6 -1 -8 4 -5 11 7 28 -22 18 -31 -3 -3
-5 0 -5 6 0 7 -5 12 -11 12 -5 0 -7 -5 -3 -12 5 -8 2 -9 -9 -5 -10 3 -17 3
-17 -2 0 -4 -10 -13 -22 -20 -21 -10 -21 -11 -2 -6 13 3 26 -1 35 -12 11 -15
11 -16 -1 -5 -19 17 -30 15 -31 -5 0 -11 -3 -13 -6 -5 -2 6 -9 12 -14 12 -6 0
-5 -10 2 -22 l12 -23 -23 20 -23 20 11 -20 c9 -17 7 -21 -8 -22 -13 -1 -17 3
-13 13 3 8 1 14 -4 14 -6 0 -9 -16 -8 -35 2 -19 -1 -38 -6 -40 -4 -3 -6 3 -4
15 2 11 -1 22 -6 26 -5 3 -9 2 -8 -3 4 -21 -2 -43 -12 -43 -5 0 -7 5 -3 12 4
7 3 8 -5 4 -8 -6 -9 -12 -2 -20 6 -7 7 -16 3 -20 -4 -4 -8 -12 -8 -17 -1 -5
-2 -11 -3 -14 0 -2 -13 0 -28 6 -15 6 -24 7 -21 3 13 -12 -11 -44 -30 -38 -14
5 -15 4 -2 -5 12 -8 19 -6 32 9 16 20 17 20 15 1 0 -11 -6 -19 -12 -18 -5 1
-9 -3 -8 -9 1 -6 -5 -11 -13 -11 -7 0 -14 5 -14 11 0 6 -5 4 -10 -4 -7 -11
-10 -11 -10 -2 0 7 -5 10 -11 6 -8 -4 -7 -9 2 -15 7 -4 17 -5 21 -3 4 3 8 1 8
-5 0 -5 -10 -11 -22 -13 -18 -2 -23 -9 -21 -31 2 -25 0 -26 -14 -12 -12 12
-18 13 -29 4 -8 -6 -11 -16 -8 -21 3 -5 -2 -8 -12 -6 -15 2 -18 -2 -16 -20 2
-13 -3 -25 -12 -28 -9 -3 -16 -12 -16 -19 0 -7 -7 -16 -16 -19 -8 -3 -12 -10
-9 -16 3 -5 1 -10 -4 -10 -16 0 -13 16 4 30 8 7 15 18 14 24 0 6 -3 6 -6 -2
-4 -10 -8 -10 -21 0 -15 11 -15 11 -4 -3 10 -14 8 -19 -13 -33 -14 -9 -25 -22
-24 -29 1 -7 1 -21 0 -32 -1 -16 -3 -17 -10 -5 -6 8 -7 18 -4 24 3 5 1 6 -6 2
-6 -4 -9 -12 -5 -17 3 -6 -2 -9 -12 -7 -15 2 -18 -2 -16 -19 2 -13 -2 -24 -7
-24 -6 -1 -15 -2 -21 -3 -5 0 -17 -11 -26 -24 l-16 -23 -19 20 c-11 12 -23 21
-26 21 -3 0 2 -9 12 -20 11 -12 13 -20 6 -20 -7 0 -10 -4 -7 -9 3 -5 -2 -12
-11 -15 -10 -4 -14 -4 -10 0 11 12 -13 33 -30 27 -10 -4 -14 -2 -10 4 7 11
-10 31 -27 32 -10 0 -17 21 -19 57 -1 18 -4 20 -19 10 -17 -10 -17 -12 -1 -23
9 -7 12 -13 6 -13 -20 0 -34 25 -20 39 9 10 9 12 -3 9 -8 -2 -18 -10 -22 -18
-5 -12 -7 -12 -7 2 -1 9 7 22 17 27 24 14 6 14 -21 -1 -20 -10 -21 -10 -8 6 8
9 11 19 7 23 -3 3 -6 1 -6 -5 0 -6 -9 -10 -20 -9 -11 1 -20 5 -20 10 0 4 -4 5
-10 2 -5 -3 -10 -1 -10 5 0 12 32 10 41 -3 3 -5 9 -1 12 8 4 9 3 13 -2 10 -5
-3 -12 -1 -16 4 -3 6 -12 8 -20 4 -9 -3 -15 1 -15 8 0 11 -3 11 -10 -1 -5 -8
-10 -10 -10 -5 0 6 6 17 13 24 10 11 8 12 -10 7 -25 -8 -53 27 -30 38 6 3 2 3
-10 0 -14 -3 -25 1 -31 13 -9 14 -14 15 -36 5 -34 -15 -34 -7 0 11 26 13 26
14 5 20 -11 3 -19 2 -16 -2 2 -4 -2 -8 -9 -8 -8 0 -12 7 -8 15 3 10 1 13 -6 8
-6 -3 -13 -2 -17 4 -4 6 -11 8 -16 5 -13 -8 -11 9 2 22 8 8 5 15 -10 25 -12 8
-18 18 -13 23 4 5 2 5 -5 2 -15 -9 -45 2 -37 14 3 5 -1 9 -9 9 -10 0 -14 -8
-11 -22 2 -13 1 -16 -2 -8 -4 8 -14 24 -23 35 -15 18 -15 19 2 6 11 -9 17 -10
17 -2 0 10 -7 13 -26 10 -4 0 -11 5 -16 13 -6 9 -7 6 -3 -8 5 -19 2 -22 -20
-20 -22 1 -23 3 -9 13 9 6 14 20 11 30 -4 17 -5 17 -6 0 0 -10 -5 -16 -11 -12
-5 3 -7 12 -4 19 3 8 1 17 -5 21 -7 3 -8 0 -5 -9 4 -11 0 -14 -15 -11 -11 2
-23 0 -26 -6 -10 -15 -25 -10 -26 9 0 14 -2 13 -9 -4 -4 -11 -20 -28 -35 -38
-15 -10 -25 -14 -23 -10 3 5 -4 18 -15 29 l-20 20 12 -23 c10 -18 10 -27 -1
-40 -27 -35 -42 -41 -60 -25 -9 8 -21 13 -25 10 -5 -3 -10 -65 -12 -137 -2
-108 0 -131 11 -124 10 6 11 5 1 -7 -12 -15 -13 -92 -2 -104 4 -3 5 5 4 19 -2
14 2 23 8 21 31 -6 45 -18 45 -40 0 -14 -4 -22 -9 -19 -5 3 -6 -2 -3 -11 5
-13 9 -13 18 -3 6 7 10 11 9 9 -2 -2 2 -10 8 -18 9 -10 8 -17 -1 -29 -11 -12
-11 -15 1 -12 8 2 13 -3 11 -10 -1 -6 4 -11 10 -10 7 2 12 -2 11 -8 -1 -6 5
-11 12 -11 12 0 12 3 2 16 -11 14 -10 14 5 2 10 -7 15 -18 12 -23 -4 -6 2 -7
16 -3 16 5 20 4 15 -5 -4 -6 -17 -10 -29 -8 -16 3 -22 -1 -22 -13 0 -13 4 -15
13 -8 13 12 33 4 33 -12 0 -6 -4 -8 -9 -4 -5 3 -12 1 -16 -4 -6 -10 25 -7 48
4 6 4 2 -2 -10 -13 l-23 -20 33 2 c25 1 31 -3 29 -16 -2 -10 3 -18 9 -18 7 0
10 -2 7 -5 -8 -8 -39 6 -33 15 10 17 -13 19 -26 3 -9 -10 -9 -14 -2 -10 7 5
16 -1 23 -12 9 -17 15 -19 36 -11 16 7 23 7 19 0 -3 -5 -1 -20 5 -32 l11 -23
-18 22 c-14 17 -21 20 -33 12 -13 -9 -12 -10 3 -5 19 6 24 -9 5 -18 -7 -3 -4
-4 7 -3 15 1 19 -3 18 -18 -1 -11 0 -14 3 -7 3 6 13 12 21 12 13 0 13 -3 3
-15 -11 -13 -10 -14 5 -9 13 5 16 4 11 -4 -8 -14 10 -52 25 -52 6 0 7 5 3 12
-4 6 -3 8 4 4 11 -7 9 -37 -4 -58 -4 -6 -3 -8 4 -4 5 3 12 3 15 -1 2 -5 2 -3
1 4 -2 7 0 14 4 17 7 4 11 -11 14 -52 1 -7 7 -11 14 -8 8 3 11 -2 9 -15 -2
-10 0 -19 6 -19 5 0 9 6 9 14 0 8 4 18 10 21 6 4 6 -4 -1 -22 -10 -28 4 -73
23 -73 12 0 10 7 -7 23 -12 12 -12 16 -1 20 7 3 13 0 14 -6 0 -7 3 -22 6 -34
4 -17 1 -21 -12 -16 -14 4 -15 3 -2 -5 17 -13 43 4 33 22 -3 6 -2 7 2 3 12
-10 15 -38 4 -31 -5 3 -9 -2 -9 -11 0 -10 -5 -13 -12 -9 -7 4 -8 3 -4 -5 4 -6
12 -9 17 -6 5 3 6 0 3 -8 -3 -8 2 -17 11 -21 9 -3 14 -10 11 -14 -3 -5 0 -17
7 -26 12 -16 13 -16 13 3 0 11 -5 17 -11 13 -5 -3 -4 2 4 11 14 18 22 22 20
10 -4 -26 2 -63 10 -59 5 3 11 -4 14 -15 4 -16 11 -20 24 -15 12 4 10 -1 -7
-15 -24 -21 -24 -21 -2 -15 13 5 22 3 22 -3 0 -6 -6 -11 -12 -11 -10 0 -9 -3
1 -9 11 -7 11 -9 0 -14 -8 -2 -2 -4 14 -3 24 1 25 3 11 13 -15 11 -14 12 4 10
21 -1 24 -32 4 -32 -7 0 -12 -3 -12 -7 0 -5 0 -10 0 -13 0 -3 10 0 23 6 12 6
19 8 15 4 -4 -4 -3 -16 2 -26 7 -11 6 -19 0 -22 -6 -3 -5 -4 2 -3 7 2 12 14
11 27 -2 21 -1 22 8 6 5 -9 7 -22 4 -27 -3 -5 -8 -18 -10 -29 -3 -18 0 -19 34
-12 2 1 -2 7 -8 15 -9 11 -9 16 0 22 7 4 9 3 5 -4 -3 -6 1 -15 10 -20 11 -6
13 -11 5 -16 -16 -10 -14 -23 4 -23 8 0 12 3 10 7 -2 3 6 7 18 7 13 1 17 -1
10 -5 -13 -8 -12 -37 2 -49 4 -5 5 -2 0 6 -6 11 -4 13 9 8 10 -4 15 -3 11 3
-3 5 5 7 17 5 13 -3 24 -9 26 -15 2 -5 8 -10 13 -10 6 0 7 4 4 10 -4 6 1 7 11
3 14 -5 14 -7 1 -15 -18 -10 -47 0 -47 16 0 6 -5 4 -10 -4 -5 -8 -10 -19 -10
-25 0 -5 4 -4 9 3 7 11 10 10 15 -3 3 -9 4 -20 2 -24 -3 -4 46 -7 108 -6 98 0
112 2 112 17 0 9 -4 14 -8 12 -4 -3 -12 4 -17 15 -15 27 -13 41 2 16 7 -11 22
-21 35 -22 26 -3 30 13 5 20 -13 3 -12 5 5 6 16 1 21 5 16 14 -4 6 -4 9 1 5 4
-4 15 -2 24 5 14 11 15 10 1 -7 -16 -21 -23 -49 -9 -40 5 3 7 9 5 13 -8 12 40
35 54 26 9 -6 9 -3 1 13 -10 18 -8 20 13 18 17 -2 23 1 19 10 -6 15 71 96 81
86 4 -3 4 1 0 11 -5 13 -2 16 9 11 12 -4 15 1 13 21 -3 19 0 25 10 21 8 -3 14
-1 14 4 0 9 -15 14 -33 11 -5 -1 -6 3 -2 8 3 6 13 7 23 4 14 -6 15 -4 5 8 -10
13 -10 16 2 16 8 0 12 -4 9 -9 -3 -4 0 -8 6 -8 6 0 8 -5 4 -12 -5 -7 -3 -8 5
-4 7 5 10 10 7 13 -2 3 10 19 27 36 17 17 24 28 14 24 -9 -3 -17 -4 -17 -1 0
2 10 9 23 14 17 7 18 9 5 9 -22 1 -23 10 -3 37 8 12 12 23 10 26 -2 2 6 5 18
5 19 2 20 1 5 -8 -25 -14 -41 -46 -23 -46 7 0 11 7 7 15 -4 11 -1 13 8 7 8 -5
11 -4 7 2 -4 6 0 14 9 17 22 9 -1 37 -24 29 -14 -4 -14 -3 -3 5 10 7 21 7 32
1 24 -13 49 -12 29 1 -8 5 -10 10 -5 10 6 0 1 7 -9 15 -26 20 -7 19 21 0 16
-11 24 -12 29 -4 4 7 3 9 -4 5 -20 -12 -22 13 -2 27 18 13 19 15 5 21 -11 4
-14 2 -9 -7 4 -6 3 -8 -1 -4 -5 4 -10 14 -11 23 -2 11 1 12 11 4 9 -8 14 -7
19 5 3 8 0 15 -7 15 -6 0 -2 7 10 15 12 9 21 21 19 28 -1 6 -1 9 1 5 3 -5 12
-8 20 -8 14 0 13 3 -3 22 -10 12 -14 19 -9 16 12 -7 37 17 27 26 -3 4 2 4 13
0 11 -5 14 -9 7 -12 -7 -2 -9 -9 -6 -14 4 -6 2 -8 -4 -4 -6 3 -14 2 -17 -4 -4
-6 -1 -9 7 -8 7 2 12 -3 10 -10 -1 -8 2 -11 8 -7 6 4 9 9 6 12 -3 3 -1 14 4
24 7 13 6 22 -5 33 -14 13 -13 15 4 13 11 0 18 -4 15 -8 -6 -10 16 -23 24 -14
4 4 -6 18 -23 32 -20 16 -23 21 -8 14 15 -7 24 -8 28 -1 4 6 10 8 14 6 6 -4
12 22 13 64 1 8 6 18 12 22 6 4 11 13 11 20 0 7 9 14 20 15 19 3 19 3 1 -5
-15 -7 -17 -11 -7 -17 15 -9 33 14 23 30 -13 20 -11 37 2 26 7 -6 16 -8 20 -4
4 4 4 0 0 -10 -4 -11 -1 -17 7 -17 7 0 9 3 6 7 -4 3 -1 13 5 21 17 20 19 44 5
61 -10 12 -9 13 10 3 27 -15 45 -15 21 -1 -22 12 -23 25 -4 32 10 4 13 1 9 -9
-3 -7 0 -14 7 -14 6 0 9 4 5 10 -3 5 8 21 24 35 27 25 34 46 18 61 -3 4 -4 -3
-2 -15 2 -12 0 -19 -5 -16 -7 4 -7 20 -1 43 1 1 9 -2 20 -7 26 -14 34 -2 16
25 -14 21 -14 23 2 17 11 -5 14 -3 8 6 -6 10 -3 11 14 2 25 -14 27 -8 5 13
-17 17 -12 31 15 45 13 7 18 6 18 -4 0 -7 -6 -11 -13 -8 -16 6 -28 -14 -13
-22 11 -7 33 9 35 26 1 5 2 14 3 20 0 5 6 7 13 3 7 -4 8 -3 4 4 -4 6 -14 9
-24 6 -15 -5 -15 -4 1 6 14 9 22 9 35 -2 15 -12 16 -11 4 4 -11 14 -10 18 8
28 11 6 18 15 15 19 -2 5 2 14 10 21 12 10 15 10 15 -1 0 -11 2 -11 9 1 6 8 7
18 5 22 -3 4 1 8 8 8 10 0 10 2 -1 9 -8 5 -16 17 -17 25 -1 9 2 14 7 10 5 -3
9 3 9 13 0 15 2 15 9 4 7 -10 4 -19 -7 -28 -15 -12 -14 -13 6 -3 13 6 20 16
16 22 -5 7 -2 9 9 5 12 -4 14 -2 10 10 -4 11 -2 14 5 9 7 -4 12 -2 12 3 0 14
-13 14 -28 -1 -9 -9 -12 -9 -12 -1 0 7 9 15 20 18 11 3 20 11 20 16 0 6 -4 7
-10 4 -5 -3 -10 -3 -10 1 0 9 32 33 45 34 6 0 4 -4 -3 -9 -11 -7 -11 -9 2 -14
9 -4 15 -3 15 1 -3 21 2 32 13 26 7 -4 8 -3 4 4 -4 6 -14 8 -23 5 -12 -5 -12
-2 3 15 10 12 23 22 28 22 5 0 19 11 32 25 13 14 19 25 14 25 -21 0 -8 41 18
57 15 10 30 22 34 27 9 13 -2 37 -15 29 -6 -3 -7 -1 -3 6 4 6 11 9 16 6 4 -3
16 7 25 22 16 24 16 26 1 20 -10 -4 -15 -3 -11 3 3 6 13 10 21 10 9 0 12 5 8
12 -4 7 -3 8 4 4 13 -8 2 -36 -26 -69 -15 -16 -14 -17 1 -11 9 3 17 11 17 16
0 6 8 4 18 -3 15 -12 16 -12 6 1 -11 15 -5 52 9 51 20 -2 20 1 -3 19 -24 18
-9 23 19 6 10 -6 12 -5 7 3 -4 6 2 15 16 21 22 10 21 10 -4 5 -21 -4 -26 -2
-22 9 3 8 12 12 19 10 7 -3 16 0 20 6 5 8 11 7 23 -2 15 -11 15 -11 5 3 -7 9
-9 20 -5 25 4 5 -4 0 -18 -11 l-25 -20 18 21 c9 11 15 23 12 26 -3 3 6 4 19 3
14 -2 25 0 25 3 -3 22 2 42 10 38 5 -3 14 8 21 24 11 28 21 35 43 31 5 -1 6 3
2 9 -4 7 -12 7 -25 0 -16 -8 -18 -8 -14 5 4 8 10 15 16 15 5 0 6 6 2 13 -5 7
-1 6 10 -3 21 -16 49 -23 40 -9 -3 5 -9 7 -14 4 -5 -3 -14 5 -21 17 -11 20
-11 22 3 10 13 -11 18 -11 24 0 11 17 14 38 6 37 -4 -1 -14 -1 -22 0 -13 1
-13 3 -1 10 8 5 21 7 29 3 9 -3 13 -1 9 5 -9 15 3 44 14 37 8 -4 14 17 10 39
0 4 4 7 10 7 6 0 9 -7 5 -15 -6 -17 2 -19 24 -5 8 5 10 10 4 10 -7 0 -14 7
-18 15 -5 13 -2 13 19 -1 24 -16 25 -15 18 1 -5 14 -3 16 8 10 12 -7 12 -6 -1
9 -17 21 -23 49 -8 40 6 -4 8 2 3 17 -4 16 -3 20 3 11 7 -11 10 -11 15 2 4 9
13 13 22 10 8 -3 12 -11 8 -17 -3 -5 -1 -7 5 -4 5 4 8 16 5 27 -3 11 -10 17
-15 14 -5 -3 -4 3 4 15 10 17 14 18 21 6 4 -8 16 -15 25 -14 14 0 13 2 -3 9
-11 5 -14 9 -7 9 10 1 10 5 -2 17 -17 17 -20 25 -8 23 19 -3 25 2 12 11 -11 7
-11 10 -2 10 7 0 11 4 8 9 -4 5 3 7 14 4 11 -3 17 -9 14 -14 -3 -5 -11 -6 -17
-3 -7 4 -9 4 -5 -1 4 -4 2 -15 -5 -23 -10 -13 -9 -14 2 -8 8 5 17 3 22 -5 6
-10 8 -7 7 11 -2 18 1 24 12 22 8 -2 12 0 8 4 -4 4 -3 13 4 21 13 16 18 113 5
113 -4 0 -5 5 -2 10 4 6 1 9 -7 8 -7 -2 -12 2 -11 9 2 7 -10 10 -35 8 -24 -3
-30 -1 -18 4 24 9 29 36 10 52 -11 9 -16 6 -23 -12 -8 -21 -9 -19 -8 13 1 21
5 34 11 31 5 -3 6 -1 2 6 -4 6 -12 9 -17 5 -5 -3 -17 0 -26 8 -9 7 -14 8 -10
2 7 -13 -19 -27 -33 -19 -5 3 -7 13 -4 23 4 11 3 13 -3 6 -4 -7 -17 -14 -28
-17 -19 -5 -19 -5 3 -12 12 -4 22 -12 22 -17 0 -9 -13 -4 -37 14 -15 12 5 50
21 41 5 -3 6 -1 2 5 -10 16 -15 15 -22 -3z m111 -64 c-3 -3 -10 1 -15 9 -8 13
-10 13 -10 1 0 -8 -3 -12 -6 -8 -3 3 -3 11 1 17 5 8 11 8 21 -1 8 -6 12 -14 9
-18z m40 -21 c3 -5 1 -10 -4 -10 -6 0 -11 5 -11 10 0 6 2 10 4 10 3 0 8 -4 11
-10z m46 -102 c-11 -10 -14 -11 -18 0 -3 6 -9 10 -14 7 -5 -4 -6 1 -3 10 5 11
2 14 -12 9 -17 -6 -17 -5 1 9 18 15 22 14 40 -3 16 -16 17 -22 6 -32z m14 -35
c-1 -28 -24 -79 -25 -55 0 7 -4 11 -9 7 -5 -3 -13 0 -17 6 -4 7 -3 9 3 6 6 -4
16 0 22 7 10 11 7 18 -11 31 -13 10 -16 15 -7 12 9 -3 22 -1 30 4 8 5 14 9 14
9 1 0 0 -12 0 -27z m-509 -18 c-2 -14 -25 -44 -27 -34 0 2 -2 12 -4 22 -2 9 1
15 5 12 5 -3 11 -1 15 5 9 14 14 12 11 -5z m469 5 c3 -5 1 -10 -4 -10 -6 0
-11 5 -11 10 0 6 2 10 4 10 3 0 8 -4 11 -10z m-885 -450 c-8 -5 -19 -10 -25
-10 -5 0 -3 5 5 10 8 5 20 10 25 10 6 0 3 -5 -5 -10z m594 -44 c-9 -23 -31
-26 -45 -8 -11 14 -11 15 0 5 11 -9 17 -9 28 3 18 18 24 18 17 0z m-34 -44 c0
-15 -11 -21 -27 -15 -12 5 -12 7 -1 14 17 11 28 11 28 1z m-696 -88 c3 -8 2
-12 -4 -9 -6 3 -10 10 -10 16 0 14 7 11 14 -7z m526 -150 c0 -8 -19 -13 -24
-6 -3 5 1 9 9 9 8 0 15 -2 15 -3z m-72 -114 c-11 -18 -31 -21 -45 -6 -4 4 -1
6 7 4 8 -1 14 2 13 9 -2 8 4 10 15 6 15 -6 16 -5 2 13 -14 17 -14 18 2 6 14
-11 15 -17 6 -32z m-1920 -68 c2 -7 -1 -12 -8 -12 -6 0 -9 -4 -6 -8 3 -5 -1
-9 -9 -9 -11 0 -12 4 -4 13 7 8 7 14 -1 19 -5 3 -10 2 -10 -3 0 -5 -11 -12
-24 -14 -17 -3 -23 -1 -19 8 2 7 11 10 18 8 7 -3 16 -1 19 4 8 13 39 8 44 -6z
m-53 -32 c-3 -5 -12 -10 -18 -10 -7 0 -6 4 3 10 19 12 23 12 15 0z m-38 -6
c-3 -3 -12 -4 -19 -1 -8 3 -5 6 6 6 11 1 17 -2 13 -5z m-137 -33 c0 -6 -4 -12
-8 -15 -5 -3 -9 1 -9 9 0 8 4 15 9 15 4 0 8 -4 8 -9z m380 -13 c0 -5 4 -7 9
-3 5 3 13 0 17 -6 4 -8 3 -9 -4 -5 -7 4 -12 1 -12 -6 0 -9 -3 -9 -10 2 -5 8
-14 16 -20 16 -19 3 -21 4 -15 14 7 11 35 2 35 -12z m837 -64 c-3 -3 -12 -4
-19 -1 -8 3 -5 6 6 6 11 1 17 -2 13 -5z m738 -14 c-3 -5 -1 -10 4 -10 6 0 11
5 11 10 0 6 4 10 8 10 5 0 9 -7 9 -15 0 -8 -3 -13 -5 -10 -3 3 -13 -2 -22 -10
-15 -14 -16 -13 -14 7 3 28 3 28 10 28 3 0 2 -4 -1 -10z m-791 -31 c-3 -5 -10
-7 -15 -3 -5 3 -7 10 -3 15 3 5 10 7 15 3 5 -3 7 -10 3 -15z m-661 -3 c4 -10
1 -13 -8 -9 -8 3 -12 9 -9 14 7 12 11 11 17 -5z m632 -24 c-3 -3 -11 0 -18 7
-9 10 -8 11 6 5 10 -3 15 -9 12 -12z m814 5 c-2 -1 -12 -9 -22 -16 -15 -12
-17 -12 -11 3 3 9 13 16 22 16 8 0 13 -1 11 -3z m-914 -115 c-8 -8 -25 10 -19
20 4 6 9 5 15 -3 4 -7 6 -15 4 -17z m-1024 -40 c-7 -2 -18 1 -23 6 -8 8 -4 9
13 5 13 -4 18 -8 10 -11z m979 -18 c0 -2 -9 0 -20 6 -11 6 -20 13 -20 16 0 2
9 0 20 -6 11 -6 20 -13 20 -16z m831 -1 c13 -16 12 -17 -3 -4 -17 13 -22 21
-14 21 2 0 10 -8 17 -17z m-905 -49 c-4 -9 -9 -15 -11 -12 -3 3 -3 13 1 22 4
9 9 15 11 12 3 -3 3 -13 -1 -22z m17 -19 c-3 -9 -8 -14 -10 -11 -3 3 -2 9 2
15 9 16 15 13 8 -4z m843 0 c-11 -8 -22 -12 -25 -9 -6 6 19 24 34 24 6 -1 1
-7 -9 -15z m-882 -6 c3 -3 -4 -5 -14 -6 -11 -1 -20 2 -20 7 0 8 25 8 34 -1z
m-777 -42 c2 -3 -3 -7 -11 -10 -8 -3 -20 0 -26 8 -10 12 -8 13 10 10 13 -2 25
-6 27 -8z m1587 -68 c-6 -11 -24 -2 -24 11 0 5 7 7 15 4 8 -4 12 -10 9 -15z
m-120 -143 c-6 -15 -24 -23 -24 -11 0 8 24 34 28 30 1 -1 0 -10 -4 -19z m-162
-230 c7 4 8 2 4 -5 -9 -13 -26 -5 -25 12 0 9 2 8 6 -1 2 -6 10 -9 15 -6z
m-953 -127 c-12 -7 -12 -9 0 -9 8 0 12 -3 8 -6 -10 -10 -26 6 -21 21 4 8 11
12 16 9 6 -4 5 -10 -3 -15z m833 -67 c-4 -12 -25 -13 -22 -2 0 3 3 16 7 29 6
23 7 23 13 5 4 -10 5 -25 2 -32z m-82 -82 c0 -5 -5 -10 -11 -10 -5 0 -7 5 -4
10 3 6 8 10 11 10 2 0 4 -4 4 -10z m-103 -115 c0 -8 -4 -15 -9 -15 -10 0 -11
14 -1 23 9 10 10 9 10 -8z m-227 -89 c8 -11 9 -20 1 -33 -7 -12 -10 -13 -11
-4 0 11 -3 11 -15 1 -10 -9 -15 -9 -15 -1 0 10 13 15 33 12 14 -2 7 18 -10 28
-10 6 -13 11 -7 11 6 0 17 -7 24 -14z m45 4 c-3 -5 -12 -10 -18 -10 -7 0 -6 4
3 10 19 12 23 12 15 0z m-78 -16 c-3 -3 -12 -4 -19 -1 -8 3 -5 6 6 6 11 1 17
-2 13 -5z m103 -29 c0 -5 -5 -3 -10 5 -9 13 -10 13 -10 0 0 -13 -1 -13 -10 0
-6 10 -10 11 -10 3 0 -7 -5 -13 -11 -13 -8 0 -8 5 1 15 7 8 16 12 21 9 5 -3 9
1 9 8 0 9 3 9 10 -2 5 -8 10 -19 10 -25z m-140 6 c0 -14 -2 -14 -10 -1 -6 10
-10 11 -10 3 0 -17 -16 -17 -23 0 -3 7 5 13 19 13 16 1 24 -3 24 -15z"/>
<path d="M2750 2572 c6 -13 14 -21 18 -18 3 4 -2 14 -12 24 -18 16 -18 16 -6
-6z"/>
<path d="M2505 2720 c-4 -6 -11 -7 -17 -4 -7 5 -8 2 -3 -6 6 -10 4 -12 -10 -6
-15 6 -16 4 -4 -10 11 -14 14 -14 23 -1 6 7 19 13 29 11 15 -2 16 0 6 12 -14
17 -16 17 -24 4z"/>
<path d="M2331 2586 c-21 -12 -22 -14 -5 -20 10 -4 15 -4 11 0 -4 4 1 13 11
20 22 17 14 17 -17 0z"/>
<path d="M2647 2298 c-11 -20 -13 -27 -4 -20 8 7 16 10 18 7 3 -2 6 7 7 20 2
32 1 31 -21 -7z"/>
<path d="M2566 2174 c-17 -12 -18 -16 -6 -27 9 -8 11 -8 6 0 -3 6 2 16 11 22
10 5 16 12 13 14 -3 3 -14 -1 -24 -9z"/>
<path d="M2550 2122 c0 -5 7 -9 15 -9 8 0 12 4 9 9 -3 4 -9 8 -15 8 -5 0 -9
-4 -9 -8z"/>
<path d="M1777 1994 c6 -17 8 -17 21 -1 8 10 6 13 -8 14 -13 1 -17 -3 -13 -13z"/>
<path d="M1730 1966 c0 -2 8 -10 18 -17 15 -13 16 -12 3 4 -13 16 -21 21 -21
13z"/>
<path d="M2232 1681 c2 -18 -3 -24 -11 -12 -5 8 -11 9 -15 3 -11 -18 22 -21
38 -3 13 15 14 18 2 18 -8 0 -15 -3 -14 -6z"/>
<path d="M116 1570 c5 -8 9 -18 9 -22 0 -5 4 -8 8 -9 18 -2 16 9 -5 27 -13 11
-18 13 -12 4z"/>
<path d="M2146 1558 c3 -5 10 -6 15 -3 13 9 11 12 -6 12 -8 0 -12 -4 -9 -9z"/>
<path d="M1319 1548 c-7 -24 -4 -38 9 -43 9 -3 13 -3 9 1 -4 4 -2 13 5 21 9
11 7 12 -7 7 -13 -5 -16 -4 -11 4 4 7 5 12 2 12 -3 0 -6 -1 -7 -2z"/>
<path d="M36 1513 c-6 -14 -5 -15 5 -6 7 7 10 15 7 18 -3 3 -9 -2 -12 -12z"/>
<path d="M65 1520 c-4 -6 1 -7 12 -3 16 6 16 5 4 -10 -7 -9 -17 -14 -22 -11
-5 3 -9 -3 -9 -12 0 -15 4 -14 25 6 13 12 22 27 19 31 -7 12 -21 11 -29 -1z"/>
<path d="M455 1420 c3 -5 8 -10 11 -10 2 0 4 5 4 10 0 6 -5 10 -11 10 -5 0 -7
-4 -4 -10z"/>
<path d="M485 1420 c-3 -5 -1 -10 4 -10 6 0 11 5 11 10 0 6 -2 10 -4 10 -3 0
-8 -4 -11 -10z"/>
<path d="M555 1369 c-4 -6 -5 -12 -2 -15 2 -3 7 2 10 11 7 17 1 20 -8 4z"/>
<path d="M595 1329 c-4 -6 -5 -12 -2 -15 2 -3 7 2 10 11 7 17 1 20 -8 4z"/>
<path d="M1101 1314 c0 -11 3 -14 6 -6 3 7 2 16 -1 19 -3 4 -6 -2 -5 -13z"/>
<path d="M805 1160 c-4 -6 -10 -8 -14 -6 -4 3 -8 -1 -8 -9 0 -8 3 -13 5 -10 3
3 14 -2 24 -12 10 -9 18 -11 18 -6 0 6 -7 14 -16 17 -13 5 -14 9 -4 21 7 8 10
15 7 15 -3 0 -9 -5 -12 -10z"/>
<path d="M1876 1158 c3 -5 10 -6 15 -3 13 9 11 12 -6 12 -8 0 -12 -4 -9 -9z"/>
<path d="M32 1126 c2 -19 5 -22 15 -14 10 8 10 14 2 24 -16 20 -19 18 -17 -10z"/>
<path d="M845 1100 c3 -5 11 -10 16 -10 6 0 7 5 4 10 -3 6 -11 10 -16 10 -6 0
-7 -4 -4 -10z"/>
<path d="M1653 887 c-12 -19 -14 -45 -3 -52 6 -4 7 1 3 11 -4 12 -3 15 6 10 7
-5 10 -2 9 6 -2 7 3 12 10 11 17 -4 15 14 -3 20 -8 4 -18 1 -22 -6z"/>
<path d="M320 690 c-9 -6 -10 -10 -3 -10 6 0 15 5 18 10 8 12 4 12 -15 0z"/>
<path d="M1504 668 c-11 -18 -13 -51 -2 -40 9 9 20 52 13 52 -2 0 -7 -6 -11
-12z"/>
<path d="M367 579 c7 -7 15 -10 18 -7 3 3 -2 9 -12 12 -14 6 -15 5 -6 -5z"/>
<path d="M397 535 c-4 -8 -3 -16 1 -19 4 -3 9 4 9 15 2 23 -3 25 -10 4z"/>
<path d="M1235 249 c-4 -6 -5 -12 -2 -15 2 -3 7 2 10 11 7 17 1 20 -8 4z"/>
<path d="M615 240 c-3 -5 -1 -10 4 -10 6 0 11 5 11 10 0 6 -2 10 -4 10 -3 0
-8 -4 -11 -10z"/>
<path d="M1186 215 c-17 -26 -13 -34 7 -12 12 12 20 37 13 37 -2 0 -11 -11
-20 -25z"/>
<path d="M1050 82 c0 -5 7 -9 15 -9 8 0 12 4 9 9 -3 4 -9 8 -15 8 -5 0 -9 -4
-9 -8z"/>
</g>
</svg>
